<svg width="45" height="53" viewBox="0 0 45 53" fill="none" xmlns="http://www.w3.org/2000/svg">
<path d="M11.1163 17.3819C19.5433 22.6762 25.0574 32.5321 23.9912 45.015C23.6248 49.2065 21.6573 52.4894 22.7382 51.9251C25.6437 50.4083 44.7806 45.6301 44.7806 25.1719C43.9623 8.1916 30.9013 0.212891 30.9013 0.212891C-11.1089 22.8778 0.124608 10.4718 11.1163 17.3819Z" fill="#1C75BC" stroke="white" stroke-width="0.36639" stroke-miterlimit="10"/>
<path d="M14.5266 26.2438C20.6343 30.3144 24.5034 37.6898 23.4702 46.8862C23.1221 49.9675 21.5979 52.349 22.404 51.957C24.5803 50.8945 38.6431 48.1243 39.8695 32.3312C39.8695 19.6874 29.457 13.9844 29.457 13.9844C-1.97193 29.8527 6.55762 20.9275 14.5266 26.2438Z" fill="#27AAE1" stroke="white" stroke-width="0.36639" stroke-miterlimit="10"/>
<path d="M17.9688 24.9446L29.4294 19.8408" stroke="#F1F2F2" stroke-width="0.36639" stroke-miterlimit="10"/>
<path d="M19.4062 26.0013L30.8669 20.8975" stroke="#F1F2F2" stroke-width="0.36639" stroke-miterlimit="10"/>
<path d="M20.7227 27.2962L32.187 22.1924" stroke="#F1F2F2" stroke-width="0.36639" stroke-miterlimit="10"/>
<path d="M22.2188 28.2974L33.6831 23.1973" stroke="#F1F2F2" stroke-width="0.36639" stroke-miterlimit="10"/>
<path d="M12.0273 13.4343L29.0828 5" stroke="white" stroke-width="0.36639" stroke-miterlimit="10"/>
<path d="M13.9141 14.2275L30.9695 5.79688" stroke="white" stroke-width="0.36639" stroke-miterlimit="10"/>
<path d="M15.5977 15.32L32.6531 6.88574" stroke="white" stroke-width="0.36639" stroke-miterlimit="10"/>
<path d="M17.5781 16.038L34.6336 7.60742" stroke="white" stroke-width="0.36639" stroke-miterlimit="10"/>
</svg>
